<?xml version="1.0" standalone="no"?>
<!DOCTYPE svg PUBLIC "-//W3C//DTD SVG 20010904//EN"
 "http://www.w3.org/TR/2001/REC-SVG-20010904/DTD/svg10.dtd">
<svg version="1.0" xmlns="http://www.w3.org/2000/svg"
 width="16.000000pt" height="16.000000pt" viewBox="0 0 16.000000 16.000000"
 preserveAspectRatio="xMidYMid meet">
<metadata>
Created by potrace 1.11, written by Peter Selinger 2001-2013
</metadata>
<g transform="translate(0.000000,16.000000) scale(0.002500,-0.002500)"
fill="#000000" stroke="none">
<path d="M507 6189 c-110 -26 -218 -116 -270 -227 l-32 -67 0 -2695 0 -2695
32 -67 c41 -88 113 -160 201 -201 l67 -32 2695 0 2695 0 67 32 c88 41 160 113
201 201 l32 67 0 2695 0 2695 -32 67 c-41 88 -113 160 -201 201 l-67 32 -2675
2 c-1533 0 -2691 -3 -2713 -8z m951 -1797 c3 -91 2 -93 -27 -122 -20 -21 -39
-30 -61 -30 -86 0 -158 -41 -198 -113 -14 -26 -17 -57 -16 -172 0 -77 6 -169
12 -205 26 -157 34 -242 31 -340 -3 -86 -8 -113 -27 -151 -30 -57 -72 -103
-129 -139 l-43 -28 44 -26 c59 -35 111 -97 137 -165 19 -50 20 -69 15 -191 -3
-74 -10 -162 -15 -195 -21 -129 -33 -283 -28 -353 10 -132 68 -196 193 -211
96 -11 114 -34 114 -141 0 -114 4 -110 -109 -110 -295 0 -477 137 -526 393
-19 98 -19 158 0 272 65 391 68 445 29 523 -28 56 -46 71 -109 87 l-40 11 0
108 0 109 47 12 c60 15 76 29 104 90 33 69 31 130 -11 391 -39 246 -41 286
-20 399 49 258 237 398 530 392 l100 -2 3 -93z m3760 78 c149 -36 246 -105
304 -217 75 -145 82 -286 29 -603 -24 -146 -27 -296 -7 -343 21 -49 68 -88
115 -94 50 -7 53 -15 49 -137 l-3 -89 -48 -12 c-54 -14 -93 -46 -113 -92 -22
-51 -17 -209 12 -378 35 -203 36 -391 4 -485 -30 -90 -64 -143 -122 -194 -97
-85 -225 -126 -392 -126 l-96 0 0 103 c0 125 7 135 102 147 101 12 149 46 185
130 17 40 19 214 4 313 -31 200 -36 254 -35 362 0 88 4 129 16 155 29 63 78
120 129 152 l51 31 -44 27 c-100 64 -147 145 -155 269 -5 71 0 131 28 336 17
127 25 266 18 323 -14 113 -78 177 -187 188 -39 4 -72 14 -88 26 -23 18 -24
25 -24 124 l0 104 93 0 c57 0 123 -8 175 -20z m-574 -92 c8 -30 8 -2166 0
-2195 -6 -22 -10 -23 -139 -23 -175 0 -185 7 -210 153 -3 20 -11 37 -18 37 -7
-1 -34 -23 -62 -50 -55 -55 -179 -123 -265 -145 -84 -22 -243 -19 -321 6 -150
49 -272 171 -340 339 -83 209 -94 545 -24 756 91 274 284 444 540 477 146 19
308 -20 412 -99 17 -13 34 -24 37 -24 3 0 6 171 6 379 0 209 3 386 6 395 5 14
31 16 189 16 181 0 183 0 189 -22z m-2061 -665 c115 -34 233 -119 290 -210 30
-48 69 -145 86 -216 7 -32 11 -218 11 -587 l0 -540 -119 0 c-110 0 -122 2
-146 23 -14 12 -34 46 -44 75 -10 29 -22 57 -27 62 -5 5 -35 -11 -71 -38 -75
-57 -146 -94 -232 -122 -92 -29 -291 -29 -381 1 -114 37 -182 95 -233 199 -29
61 -31 72 -32 180 0 103 3 121 26 170 32 67 114 150 194 195 138 78 402 139
635 148 l55 2 3 60 c13 230 -122 355 -335 310 -75 -15 -101 -26 -228 -94 -51
-28 -68 -32 -113 -29 -39 4 -60 11 -77 29 -24 24 -95 144 -95 159 0 28 217
163 310 194 172 56 389 69 523 29z"/>
<path d="M3822 3409 c-106 -52 -165 -147 -197 -318 -27 -140 -15 -323 31 -461
26 -78 100 -153 173 -174 73 -21 125 -20 205 4 67 21 137 67 194 129 l32 35 0
342 0 342 -37 38 c-63 62 -132 88 -243 92 -89 2 -99 0 -158 -29z"/>
<path d="M2395 2799 c-221 -41 -305 -82 -341 -168 -53 -127 58 -242 220 -228
108 9 206 54 294 136 l33 30 -3 118 -3 118 -75 2 c-41 0 -97 -3 -125 -8z"/>
</g>
</svg>
